Coordinates
version=1
nRows=24
nColumns=24
inDegrees=yes

Units are S.I. units (second, meters, Newtons, ...)
Angles are in degrees.

endheader
time	pelvis_tilt	pelvis_list	pelvis_rotation	pelvis_tx	pelvis_ty	pelvis_tz	hip_flexion_r	hip_adduction_r	hip_rotation_r	knee_angle_r	ankle_angle_r	subtalar_angle_r	mtp_angle_r	hip_flexion_l	hip_adduction_l	hip_rotation_l	knee_angle_l	ankle_angle_l	subtalar_angle_l	mtp_angle_l	lumbar_extension	lumbar_bending	lumbar_rotation
      1.29150000	      0.06278612	      7.25595386	      1.22020754	      0.16711591	      0.99423294	      0.29620498	     17.18643129	     -8.51594887	      0.16917506	    -70.37783263	     -1.16036523	     -9.51372501	      3.56764567	      9.31802318	     12.85190921	      2.03038122	    -12.88579247	      1.48791487	    -11.32086700	     -1.13719692	     -0.40617487	     -5.80597498	      2.82244821
      1.29566667	      0.13675261	      7.17354590	      1.29177203	      0.17221140	      0.99501214	      0.29593401	     17.66464985	     -8.39091387	      0.27347448	    -70.21680866	     -0.40751802	     -9.74644988	      3.49227198	      8.74156265	     12.78069946	      2.21462539	    -12.60589337	      1.63706399	    -11.25872285	     -1.14642596	     -0.50064762	     -5.70713022	      2.75915743
      1.29983333	      0.20422705	      7.10723165	      1.36197393	      0.17729192	      0.99572861	      0.29565175	     18.14374181	     -8.28991861	      0.37699134	    -70.01389030	      0.31123947	     -9.98205053	      3.41145423	      8.17368264	     12.72661836	      2.40630592	    -12.32491676	      1.77778316	    -11.22446072	     -1.15861015	     -0.58829251	     -5.62920206	      2.67976388
      1.30400000	      0.32957402	      7.01862392	      1.44594102	      0.18240047	      0.99655917	      0.29535497	     18.52194827	     -8.16902752	      0.44284524	    -69.71775747	      0.95319249	    -10.24504727	      2.96571443	      7.50687500	     12.65535760	      2.70415203	    -11.97499895	      1.83044072	    -11.33778760	     -1.24814382	     -0.73668069	     -5.52400644	      2.48583754
      1.30816667	      0.36356136	      6.94615064	      1.51954031	      0.18744819	      0.99716436	      0.29509814	     19.01440783	     -8.05927212	      0.54068460	    -69.41226265	      1.66644462	    -10.42977168	      2.90055484	      6.99891822	     12.58819016	      2.87080382	    -11.73540328	      2.02068078	    -11.27120464	     -1.25937480	     -0.77333681	     -5.44910685	      2.45810188
      1.31233333	      0.43561090	      6.90411566	      1.60703068	      0.19249461	      0.99780058	      0.29477687	     19.44946532	     -8.00389483	      0.60650307	    -69.06447469	      2.37539674	    -10.57832136	      0.66533878	      6.39746158	     12.57082190	      3.22047796	    -11.39133408	      2.02970554	    -11.47604692	     -1.79683318	     -0.87314645	     -5.40577882	      2.25828086
      1.31650000	      0.52610077	      6.79772260	      1.66728586	      0.19752752	      0.99843260	      0.29456815	     19.84327146	     -7.84797141	      0.69306406	    -68.62891216	      2.97048356	    -10.84210680	      0.60347425	      5.84469941	     12.45374181	      3.33718016	    -11.17845088	      2.27588561	    -11.31717634	     -1.80660529	     -0.99257846	     -5.27638621	      2.24925244
      1.32066667	      0.56408188	      6.69694058	      1.75254105	      0.20254818	      0.99896465	      0.29430728	     20.27913386	     -7.71650173	      0.75050654	    -68.14870324	      3.57112617	    -11.02062766	      0.57757622	      5.34450088	     12.35118865	      3.52102466	    -10.95622108	      2.44655679	    -11.26353242	     -1.81178854	     -1.03970767	     -5.14650173	      2.20544347
      1.32483333	      0.66445466	      6.62154958	      1.82330322	      0.20756648	      0.99954842	      0.29408251	     20.63257177	     -7.60564924	      0.82090047	    -67.61750270	      4.12703437	    -11.28949657	      0.49247175	      4.75728410	     12.27246472	      3.73871809	    -10.68997114	      2.58520712	    -11.26494680	     -1.83799121	     -1.17563818	     -5.07652984	      2.07970203
      1.32900000	      0.69275479	      6.52923543	      1.90866197	      0.21255276	      0.99998526	      0.29382684	     21.05520654	     -7.48914634	      0.86752402	    -67.04403087	      4.67776415	    -11.44506756	      0.45973635	      4.27433582	     12.17656447	      3.93299488	    -10.47162266	      2.75095094	    -11.23956618	     -1.84807384	     -1.22003689	     -4.95643695	      2.03153915
      1.33316667	      0.76510778	      6.44875165	      1.98908785	      0.21755683	      1.00046646	      0.29359792	     21.40555832	     -7.38100382	      0.91610734	    -66.41038770	      5.21823864	    -11.65173636	      0.41278245	      3.73695167	     12.08908566	      4.13826036	    -10.24238860	      2.90015330	    -11.23648322	     -1.86460388	     -1.31236362	     -4.87340696	      1.94987441
      1.33733333	      0.87035925	      6.37999668	      2.05660282	      0.22256228	      1.00095148	      0.29338018	     21.70775278	     -7.28813317	      0.96238896	    -65.72919976	      5.67548723	    -11.88844817	      0.31470498	      3.14318052	     12.01040711	      4.35559109	     -9.96339085	      3.03342099	    -11.27190826	     -1.90268770	     -1.45126847	     -4.79382142	      1.82104523
      1.34150000	      0.90167575	      6.29565073	      2.14374583	      0.22752810	      1.00129975	      0.29315608	     22.07582556	     -7.18034936	      0.99658695	    -65.00247116	      6.15502132	    -12.04225019	      0.26546297	      2.66797248	     11.91499389	      4.54993964	     -9.75969656	      3.19120255	    -11.25947265	     -1.92175684	     -1.49934091	     -4.69603769	      1.76869679
      1.34566667	      0.97848464	      6.24804406	      2.20782824	      0.23250711	      1.00164554	      0.29295116	     22.38782488	     -7.11319337	      1.04030199	    -64.24309965	      6.56465572	    -12.26428334	      0.15404661	      2.11498661	     11.85545173	      4.75012423	     -9.49437449	      3.33071753	    -11.29253864	     -1.96820941	     -1.60637858	     -4.64429145	      1.65258712
      1.34983333	      0.99102955	      6.17319483	      2.29233759	      0.23745238	      1.00188437	      0.29274242	     22.74980360	     -7.02093981	      1.06387618	    -63.43088059	      6.98010905	    -12.39695721	      0.10631166	      1.66309743	     11.76520370	      4.93263477	     -9.28912910	      3.49730350	    -11.26857048	     -1.98704314	     -1.64582589	     -4.55890271	      1.60972031
      1.35400000	      1.05559898	      6.10971993	      2.37120999	      0.24241624	      1.00217293	      0.29255298	     23.02932649	     -6.93780066	      1.08659493	    -62.56115908	      7.37005680	    -12.58116106	      0.04487394	      1.14680439	     11.68163694	      5.11645362	     -9.07058009	      3.65480411	    -11.26085153	     -2.01197771	     -1.73528697	     -4.48780023	      1.53701245
      1.35816667	      1.11033764	      6.04930295	      2.44436247	      0.24738466	      1.00241607	      0.29237565	     23.30312650	     -6.85626425	      1.11005830	    -61.64365511	      7.70059135	    -12.76697301	     -0.02455735	      0.63779340	     11.59955601	      5.29640456	     -8.84288363	      3.80638549	    -11.25225178	     -2.04007560	     -1.80826392	     -4.41839679	      1.45541965
      1.36233333	      1.16043681	      6.00288352	      2.51428746	      0.25233734	      1.00259819	      0.29220504	     23.57249426	     -6.79365054	      1.12798726	    -60.69466666	      8.00779250	    -12.93745689	     -0.09627465	      0.13264552	     11.53050523	      5.47099795	     -8.60921675	      3.95973051	    -11.23986024	     -2.06899229	     -1.88418691	     -4.36730409	      1.37953304
      1.36650000	      1.18282960	      5.96528910	      2.58631783	      0.25727876	      1.00270506	      0.29205137	     23.85874682	     -6.74148041	      1.14169162	    -59.70977515	      8.29115187	    -13.09708164	     -0.16493248	     -0.34078902	     11.46819432	      5.64114657	     -8.37617840	      4.11075733	    -11.22540338	     -2.09646126	     -1.94181182	     -4.33456374	      1.30917941
      1.37066667	      1.23756334	      5.92075497	      2.65700634	      0.26223426	      1.00284829	      0.29190227	     24.08020864	     -6.68021818	      1.14726660	    -58.66259025	      8.53963163	    -13.26599032	     -0.23913291	     -0.85016296	     11.39485075	      5.80880852	     -8.14380056	      4.25783860	    -11.20773877	     -2.12581713	     -2.02056613	     -4.28231090	      1.23436188
      1.37483333	      1.28512961	      5.88657357	      2.72495614	      0.26719123	      1.00292835	      0.29176712	     24.29667062	     -6.63313220	      1.14135617	    -57.58451328	      8.75910263	    -13.44449838	     -0.33117253	     -1.35711930	     11.33019584	      5.96659315	     -7.89867673	      4.40408589	    -11.19582122	     -2.16250892	     -2.09924944	     -4.24851124	      1.14851849
      1.37900000	      1.29579101	      5.86251795	      2.79166976	      0.27212457	      1.00291305	      0.29164443	     24.54337925	     -6.59725297	      1.13813516	    -56.47631187	      8.95539493	    -13.58685971	     -0.41389033	     -1.81485759	     11.27635909	      6.11507440	     -7.66928238	      4.55168992	    -11.16869893	     -2.19460115	     -2.13638411	     -4.23373035	      1.08212089
      1.38316667	      1.30310620	      5.83927313	      2.85589831	      0.27706719	      1.00285985	      0.29152645	     24.77352501	     -6.56217753	      1.12953170	    -55.32554064	      9.12478087	    -13.73791410	     -0.50465282	     -2.27089785	     11.22234779	      6.25603374	     -7.43698018	      4.70194112	    -11.13761773	     -2.22938471	     -2.16739056	     -4.21472213	      1.01076149
      1.38733333	      1.33052105	      5.81448830	      2.92354700	      0.28201255	      1.00281619	      0.29141448	     24.95698354	     -6.52937246	      1.10087065	    -54.12821659	      9.27935427	    -13.88130136	     -0.59510380	     -2.74914089	     11.16235827	      6.39563316	     -7.20402421	      4.84793595	    -11.09697909	     -2.26323967	     -2.22351170	     -4.19041556	      0.94176460
